<svg width="501" height="109" viewBox="0 0 501 109" fill="none" xmlns="http://www.w3.org/2000/svg">
<path d="M289.105 56.3812C286.223 56.3812 283.439 55.2431 281.386 53.1649C279.323 51.0866 278.198 48.3355 278.198 45.4259C278.198 43.9712 278.455 42.5659 279.017 41.2695C279.58 39.973 280.409 38.7756 281.436 37.7365C282.462 36.6973 283.647 35.9155 284.989 35.3514C286.332 34.7774 287.713 34.5201 289.155 34.5201C290.596 34.5201 291.988 34.7774 293.32 35.3514C294.663 35.9254 295.847 36.6973 296.874 37.7365C298.621 39.399 299.756 41.6356 300.062 44.0206C300.368 46.4057 299.855 48.8501 298.621 50.9283C297.644 52.5909 296.252 53.9368 294.603 54.9264C292.955 55.9161 291.099 56.4307 289.194 56.3812H289.095H289.105Z" fill="#264653"/>
<path d="M273.668 34.5201H254.982V103.844H273.668V34.5201Z" fill="#264653"/>
<path d="M405.157 103.794H386.422V34.2527H404.594V42.8724C408.809 35.658 417.15 32.4318 424.573 32.4318C441.768 32.4318 449.645 44.7429 449.645 60.003V103.834H430.9V63.2787C430.9 55.4903 427.09 49.4139 418.078 49.4139C409.895 49.4139 405.098 55.7476 405.098 63.8527V103.834L405.147 103.785L405.157 103.794Z" fill="#264653"/>
<path d="M353.049 34.0449H371.794V103.834H353.622V94.957C349.397 102.171 341.056 105.398 333.643 105.398C316.448 105.398 308.571 93.0866 308.571 77.8264V34.0548H327.316V74.6101C327.316 82.3985 331.126 88.4749 340.138 88.4749C348.321 88.4749 353.108 82.1412 353.108 74.0361V34.0548H353.059L353.049 34.0449Z" fill="#264653"/>
<path d="M490.412 104.725C486.296 104.982 482.121 104.359 478.261 102.854C474.964 101.558 472.131 99.2719 470.177 96.2634C468.272 93.3044 467.295 89.5141 467.344 84.9915V48.85H457.868V34.4112H467.344V17.7952H486.543V34.4112H499.573V48.85H486.543V82.4481C486.494 83.8534 486.75 85.3082 487.372 86.6046C487.885 87.5348 488.655 88.2672 489.642 88.6828C490.718 89.0985 491.903 89.3063 493.038 89.2568C495.664 89.1479 498.289 88.8412 500.816 88.2672V102.963C497.47 104.002 493.917 104.626 490.412 104.784V104.725Z" fill="#264653"/>
<path d="M240.817 35.6581H219.97C216.416 26.9889 209.368 21.1699 195.618 21.1699C180.22 21.1699 168.177 33.7382 168.177 54.768C168.177 72.532 179.302 88.3661 196.961 88.3661C212.764 88.3661 220.078 77.0942 221.825 67.752H198.293V50.9777H242.83V55.5993C242.83 83.5862 224.658 105.922 196.961 105.922C167.713 105.922 147.794 81.2605 147.794 54.768C147.794 28.2754 166.469 3.61372 195.608 3.61372C224.747 3.61372 237.52 23.446 240.807 35.7076V35.6581H240.817Z" fill="#264653"/>
<path d="M0.816406 95.3727L14.0829 108.673L61.4729 61.161L71.8669 71.5819L48.2163 95.2936L61.4828 108.594L87.2161 82.7945C93.3854 76.6092 93.3854 66.5446 87.2161 60.3693L61.4828 34.5695L0.816406 95.3727Z" fill="#00D6A8"/>
<path d="M119.751 0.862656L93.8493 26.8307L72.5579 5.48425C66.3886 -0.700969 56.3598 -0.700969 50.1905 5.48425L24.6546 31.0861L37.921 44.3868L61.3841 20.8632L82.6755 42.2096C85.7552 45.2973 89.8122 46.851 93.8592 46.851C97.9063 46.851 101.963 45.3072 105.043 42.2096L133.027 14.1535L119.751 0.862656Z" fill="#00D6A8"/>
</svg>
